<svg xmlns="http://www.w3.org/2000/svg" viewBox="0 0 382.22 81.66">
<title>sporty-hq-whitetext</title>
<g id="Layer_2" data-name="Layer 2">
<g id="Layer_1-2" data-name="Layer 1">
<path d="M23.51,26.91a43.91,43.91,0,0,1,15-9.93c-.86-8-5-17-19.15-17C3,0,0,12,0,20.57c0,6.15,6.51,29.17,12.68,41.59C8.78,51.87,12.77,37.65,23.51,26.91Z" style="fill:#FF7133" />
<path d="M33.42,51.63c6.73-20.39,6.65-26.6,6.46-28.06a44.44,44.44,0,0,0-13.23,9.2c-6.9,6.9-11,15.25-12,23.06a25,25,0,0,0,3.94,16.94A10.11,10.11,0,0,0,20.79,75S27.92,68.29,33.42,51.63Z" style="fill:#EF3D14" />
<path d="M76.19,36.49c5.34,10.38.69,25-10.8,36.44a45.79,45.79,0,0,1-7.34,6,0,0,0,0,0,0,0A18.61,18.61,0,0,0,69.6,81.59c10.64-.91,18.59-9.51,17.36-24C86.12,47.81,82.38,40.52,76.19,36.49Z" style="fill:#FFB600" />
<path d="M72.39,30.92A18.84,18.84,0,0,0,69,26.19c-6.05-6.05-15.51-7.27-25-4.2,1.13,3.92,1.56,13.66-3.76,29.78-4.53,13.71-11.6,23.1-15.8,25.94,8.33,4.8,20.26,3.4,30.75-3.45a45.63,45.63,0,0,0,7.36-6C74,56.77,77.74,41.3,72.39,30.92Z" style="fill:#FF5527" />
<path d="M140.61,47.24a3.25,3.25,0,0,0-1.49-2.81,18.26,18.26,0,0,0-3.71-1.9q-2.21-.86-4.79-1.72a20.93,20.93,0,0,1-4.79-2.29,13.15,13.15,0,0,1-3.7-3.62,9.82,9.82,0,0,1-1.49-5.68A12.21,12.21,0,0,1,121.7,24a9.76,9.76,0,0,1,3-3.73A13.21,13.21,0,0,1,129.33,18a22.61,22.61,0,0,1,6-.75,38,38,0,0,1,7.2.66,19,19,0,0,1,5.6,1.87l-2.7,7.11a15.51,15.51,0,0,0-1.75-.83,16.87,16.87,0,0,0-2.44-.75c-.92-.2-1.9-.38-2.93-.51a23.37,23.37,0,0,0-3.15-.2,8.26,8.26,0,0,0-4.45,1,3.13,3.13,0,0,0-1.58,2.79,3.34,3.34,0,0,0,1.49,2.84,18.93,18.93,0,0,0,3.7,1.95c1.48.59,3.07,1.18,4.8,1.78a23,23,0,0,1,4.79,2.29,13.24,13.24,0,0,1,3.7,3.53,9.33,9.33,0,0,1,1.49,5.45A13.15,13.15,0,0,1,148,52a10.52,10.52,0,0,1-3.24,4,14.1,14.1,0,0,1-5,2.33,26.4,26.4,0,0,1-6.43.74,34.94,34.94,0,0,1-4.45-.26q-2.09-.25-3.87-.63a31.36,31.36,0,0,1-3.13-.8,15.77,15.77,0,0,1-2.15-.83l2.81-7.18a13.35,13.35,0,0,0,1.75.75c.75.27,1.58.53,2.5.77a26.43,26.43,0,0,0,2.95.61,22.71,22.71,0,0,0,3.19.23,12.32,12.32,0,0,0,5.77-1.09A3.62,3.62,0,0,0,140.61,47.24Z" style="fill:#fff" />
<path d="M155.19,28.13h5.73l1,3.73h.69a11.6,11.6,0,0,1,4.13-3.44,12.38,12.38,0,0,1,5.51-1.15q6.09,0,9.13,3.64t3,11.57a22.53,22.53,0,0,1-1,6.85,15.08,15.08,0,0,1-2.87,5.29A12.41,12.41,0,0,1,175.88,58a16.42,16.42,0,0,1-6.4,1.18,13.48,13.48,0,0,1-3.39-.38,19.21,19.21,0,0,1-2.87-1V69.68h-8ZM169.76,34a6.44,6.44,0,0,0-4.24,1.24,7.79,7.79,0,0,0-2.3,3.81V50.74A7.52,7.52,0,0,0,165.4,52a8.53,8.53,0,0,0,3,.46c2.6,0,4.54-.81,5.8-2.44s1.89-4.21,1.89-7.77a10.85,10.85,0,0,0-1.46-6.06C173.69,34.72,172.06,34,169.76,34Z" style="fill:#fff" />
<path d="M189.22,43.22q0-7.45,4-11.71t11.3-4.24a17.34,17.34,0,0,1,6.72,1.2A12.88,12.88,0,0,1,216,31.83a14.32,14.32,0,0,1,2.84,5.05,20.36,20.36,0,0,1,.95,6.34,20,20,0,0,1-1,6.63,13.84,13.84,0,0,1-3,5A12.81,12.81,0,0,1,210.94,58a17.86,17.86,0,0,1-6.46,1.09,17.27,17.27,0,0,1-6.77-1.21A12.86,12.86,0,0,1,193,54.56a14,14,0,0,1-2.81-5.05A20.48,20.48,0,0,1,189.22,43.22Zm8.26,0a15.59,15.59,0,0,0,.4,3.56,8.77,8.77,0,0,0,1.24,2.9,6.29,6.29,0,0,0,2.15,2,6.4,6.4,0,0,0,3.21.75q7,0,7-9.19a17.1,17.1,0,0,0-.38-3.7,8.6,8.6,0,0,0-1.2-2.93,5.85,5.85,0,0,0-2.18-1.92,7.06,7.06,0,0,0-3.25-.69,6.39,6.39,0,0,0-5.13,2.18Q197.48,38.35,197.48,43.22Z" style="fill:#fff" />
<path d="M244.08,35.47a10.83,10.83,0,0,0-3.44-.57,6.79,6.79,0,0,0-4.16,1.21,5.53,5.53,0,0,0-2.15,3V58.26h-8V28.13h6.32l.86,4.19h.74a8.87,8.87,0,0,1,3.07-3.62,7.84,7.84,0,0,1,4.39-1.26,12.06,12.06,0,0,1,3.56.63Z" style="fill:#fff" />
<path d="M247.93,28.13h4.59V24l8-2.13v6.26h8.1v6.71h-8.1V45.29a13.49,13.49,0,0,0,.72,5.19,2.8,2.8,0,0,0,2.84,1.58,10.93,10.93,0,0,0,2.24-.2,9.76,9.76,0,0,0,1.95-.66l1.67,6a26.16,26.16,0,0,1-4.22,1.37,19.36,19.36,0,0,1-4.62.58q-4.49,0-6.54-2.21c-1.38-1.47-2.07-3.84-2.07-7.09v-15h-4.59Z" style="fill:#fff" />
<path d="M284.26,44.83l1.26,4.82h.57l1.09-4.82,5.11-16.7h8.21l-10,27.26c-.84,2.26-1.63,4.28-2.38,6.08a23.87,23.87,0,0,1-2.44,4.59,10,10,0,0,1-2.95,2.9,7.28,7.28,0,0,1-3.88,1,15.3,15.3,0,0,1-2.84-.26,8,8,0,0,1-2.32-.78l1.66-6.19a5.66,5.66,0,0,0,1.78.28,6.58,6.58,0,0,0,1.55-.17,3.39,3.39,0,0,0,1.38-.66,4.83,4.83,0,0,0,1.17-1.38,8.9,8.9,0,0,0,.95-2.38l-13.77-30.3h9.7Z" style="fill:#fff" />
<path d="M328.45,41.67H312.38V58.26h-8.5V18.08h8.5V34.21h16.07V18.08h8.49V58.26h-8.49Z" style="fill:#fff" />
<path d="M382.22,55.4l-5.28-4.33A19.92,19.92,0,0,0,378.81,47a28.1,28.1,0,0,0,1.29-8.84,28.7,28.7,0,0,0-1.18-8.49,18.29,18.29,0,0,0-3.5-6.6,15.76,15.76,0,0,0-5.79-4.28,20.21,20.21,0,0,0-8.12-1.52,20.48,20.48,0,0,0-7.81,1.41,15.47,15.47,0,0,0-5.82,4.07,18,18,0,0,0-3.65,6.57A28.77,28.77,0,0,0,343,38.17a29.52,29.52,0,0,0,1.15,8.5,18.1,18.1,0,0,0,3.47,6.6,15.73,15.73,0,0,0,5.79,4.27,22.3,22.3,0,0,0,15.87.12,17,17,0,0,0,2.51-1.31l5.79,4.75Zm-20.71-3.8a8.87,8.87,0,0,1-4.28-1,8,8,0,0,1-3-2.76,13.33,13.33,0,0,1-1.72-4.25,24.19,24.19,0,0,1-.57-5.45q0-7,2.52-10.21a8.41,8.41,0,0,1,7-3.22,8.93,8.93,0,0,1,4.39,1,8.34,8.34,0,0,1,3,2.81,12.4,12.4,0,0,1,1.69,4.27,25.73,25.73,0,0,1,.52,5.34,23.64,23.64,0,0,1-1,7.33l-4.82-4-4.67,5.7L365.18,51A10.13,10.13,0,0,1,361.51,51.6Z" style="fill:#fff" />
</g>
</g>
</svg>