<svg width="1440" height="600" viewBox="0 0 1440 600" xmlns="http://www.w3.org/2000/svg"
     xmlns:xlink="http://www.w3.org/1999/xlink">
  <defs>
    <linearGradient x1="0%" y1="0%" y2="100%" id="feature-bg-gradient-b">
      <stop stop-color="#2439C4" offset="0%"/>
      <stop stop-color="#00A4FB" offset="100%"/>
    </linearGradient>
    <path id="feature-bg-gradient-a" d="M0 0h1441v500L0 600z"/>
  </defs>
  <g transform="translate(-1)" fill="none" fill-rule="evenodd">
    <mask id="feature-bg-gradient-c" fill="#fff">
      <use xlink:href="#feature-bg-gradient-a"/>
    </mask>
    <use fill="url(#feature-bg-gradient-b)" xlink:href="#feature-bg-gradient-a"/>
    <g opacity=".2" mask="url(#feature-bg-gradient-c)" stroke="#2550D3">
      <path
        d="M189.18-25.306C247.847-83.91 313.9-128.216 381.244-157.35c11.36-4.901 17.8-17.095 15.83-29.289C379.88-292.784 316.848-404 130.317-404-99.863-404-142-234.676-142-114.49c0 86.02 90.656 406.884 177.142 582.39.109.217.363.048.278-.182-52.917-144.538 3.565-342.957 153.76-493.024"/>
      <path
        d="M181.207 627.873c24.93-18.666 100.67-86.9 183.49-319.194C463.392 31.86 433.996-65.511 431.311-86c-65.1 29.103-128.838 72.444-185.632 129.36C95.005 194.402 39.006 394.48 93.67 539.164c15.191 30.671 30.25 56.758 44.648 76.148 1.516 2.063 4.068 5.092 6.849 8.277 8.968 10.293 24.484 12.61 35.571 4.622.157-.097.313-.217.47-.338M955.894 81.038c-.18-.121-.374.072-.277.254 74.634 146.293 21.58 363.991-139.68 525.63-32.437 32.528-67.167 60.667-103.103 84.247a.34.34 0 0 0 .012.58c47.3 29.614 103.345 42.202 162.334 37.172 149.595-12.782 261.42-134.056 244.037-338.452-11.689-137.333-76.625-252.5-163.323-309.431"/>
      <path
        d="M210.279 677.187v.06c13.488 7.753 27.64 14.358 42.36 19.816 113.269 42.058 259.865 16.809 390.473-68.515 36.142-23.619 71.053-51.803 103.668-84.43 161.655-161.651 214.678-379.452 139.46-525.55-12.558-24.38-28.655-46.768-48.459-66.56-85.144-85.142-218.276-102.385-352.048-59.168a.18.18 0 0 0-.085.06c15.88 55.257 54.642 138.455-16.773 382.918-71.402 244.476-236.425 386.336-258.596 401.37"/>
    </g>
  </g>
</svg>
