<svg width="1440" height="730" viewBox="0 0 1440 730" xmlns="http://www.w3.org/2000/svg"
     xmlns:xlink="http://www.w3.org/1999/xlink">
  <defs>
    <linearGradient x1="0%" y1="0%" y2="100%" id="hero-bg-linear-gradient-b">
      <stop stop-color="#2439C4" offset="0%"/>
      <stop stop-color="#00A4FB" offset="100%"/>
    </linearGradient>
    <path d="M0 0h1440v467.679c-140.503 79.644-341.405 143.267-602.706 190.868C575.993 706.147 296.894 729.965 0 730V0z"
          id="hero-bg-linear-gradient-a"/>
  </defs>
  <g fill="none" fill-rule="evenodd">
    <mask id="hero-bg-linear-gradient-c" fill="#fff">
      <use xlink:href="#hero-bg-linear-gradient-a"/>
    </mask>
    <use fill="url(#hero-bg-linear-gradient-b)" xlink:href="#hero-bg-linear-gradient-a"/>
    <g opacity=".2" mask="url(#hero-bg-linear-gradient-c)" stroke="#2550D3">
      <path
        d="M188.917-25.306C247.539-83.91 313.539-128.216 380.83-157.35c11.35-4.901 17.786-17.095 15.817-29.289C379.466-292.784 316.485-404 130.101-404-99.896-404-142-234.676-142-114.49c0 86.02 90.584 406.884 177.002 582.39.108.217.362.048.277-.182-52.874-144.538 3.562-342.957 153.638-493.024"/>
      <path
        d="M180.95 627.873c24.91-18.666 100.592-86.9 183.345-319.194C462.913 31.86 433.541-65.511 430.858-86 365.811-56.897 302.122-13.556 245.373 43.36 94.817 194.402 38.863 394.48 93.483 539.164c15.179 30.671 30.226 56.758 44.612 76.148 1.515 2.063 4.065 5.092 6.844 8.277 8.96 10.293 24.465 12.61 35.543 4.622.156-.097.312-.217.469-.338M955.025 81.038c-.181-.121-.374.072-.277.254 74.575 146.293 21.564 363.991-139.569 525.63-32.412 32.528-67.114 60.667-103.022 84.247a.34.34 0 0 0 .012.58c47.262 29.614 103.263 42.202 162.205 37.172 149.477-12.782 261.214-134.056 243.845-338.452-11.68-137.333-76.565-252.5-163.194-309.431"/>
      <path
        d="M210 677.187v.06c13.478 7.753 27.619 14.358 42.327 19.816 113.179 42.058 259.659 16.809 390.164-68.515 36.113-23.619 70.996-51.803 103.586-84.43 161.526-161.651 214.508-379.452 139.349-525.55-12.549-24.38-28.632-46.768-48.42-66.56-85.077-85.142-218.104-102.385-351.77-59.168a.18.18 0 0 0-.085.06c15.867 55.257 54.598 138.455-16.76 382.918C397.047 520.294 232.154 662.154 210 677.188"/>
    </g>
  </g>
</svg>
